<svg width="20" height="22" viewBox="0 0 20 22" fill="none" xmlns="http://www.w3.org/2000/svg">
<path d="M6.55716 2.30283C8.76191 1.35597 11.2391 1.35609 13.4437 2.30317C15.6484 3.25025 17.4 5.06671 18.3132 7.35298C19.2262 9.63928 19.2261 12.2081 18.3128 14.4943C17.3995 16.7805 15.6479 18.5969 13.4432 19.5438C12.3498 20.0225 11.1759 20.2722 9.98913 20.2785C8.80233 20.2847 7.62607 20.0475 6.52807 19.5804C5.43006 19.1132 4.43202 18.4255 3.59142 17.5567C2.75081 16.6879 2.08425 15.6552 1.63012 14.5182C1.17599 13.3811 0.943254 12.1622 0.945326 10.9315C0.947399 9.70075 1.18423 8.48262 1.64219 7.34722C2.10015 6.21182 2.77019 5.18159 3.61372 4.31585C4.45724 3.45011 5.45759 2.76597 6.55716 2.30283" stroke="#1C2023" stroke-width="1.5" stroke-linecap="round" stroke-linejoin="round"/>
<path d="M9.71826 6.75977V11.5828L13.3743 13.8943" stroke="#1C2023" stroke-width="1.5" stroke-linecap="round" stroke-linejoin="round"/>
</svg>
