<svg width="236" height="46" viewBox="0 0 236 46" fill="none" xmlns="http://www.w3.org/2000/svg">
<path d="M21.853 45.0222V45.7375C31.2797 45.7375 37.4982 44.5786 43.3157 41.7342L45.4545 40.6862C54.694 36.0675 64.249 31.2879 80.5839 39.4886L80.8833 38.8454C62.0835 29.4193 52.4108 34.1268 42.1607 39.1392C36.1989 42.0502 30.098 45.0222 21.853 45.0222Z" fill="url(#paint0_linear)"/>
<path d="M0.566776 39.3777H0.604205L1.49714 38.923C17.1156 31.543 26.4299 36.2061 35.4395 40.7195L36.2523 41.1409L36.3966 41.0799C37.2468 40.714 38.0916 40.3203 38.9258 39.9321L39.5888 39.6216L38.7172 39.1725C28.7131 34.2599 19.2276 29.63 1.20841 38.2743L0.267347 38.7289L0 38.862L0.299429 39.5107L0.566776 39.3777Z" fill="url(#paint1_linear)"/>
<path d="M39.0702 23.6583C39.1076 23.4864 39.1504 23.309 39.1878 23.1038C39.375 22.3275 39.6102 21.4958 39.899 20.6253L39.8402 20.4812C39.7706 20.2926 39.7118 20.1152 39.6423 19.9267C39.4873 19.5164 39.3269 19.1116 39.1558 18.6847L39.006 18.2965C38.9205 18.0969 38.8296 17.8918 38.7494 17.6811C38.6211 18.0137 38.4981 18.3464 38.3751 18.6957C38.3074 18.8769 38.2379 19.0617 38.1666 19.2502C38.0489 19.5995 37.9313 19.9599 37.8244 20.3204L37.6479 20.8748C37.5944 21.0634 37.5463 21.2463 37.4875 21.4293C37.2716 22.1583 37.0931 22.8986 36.9528 23.6472C36.9528 23.7803 36.9047 23.9078 36.8833 24.0353V24.1629C37.1506 24.1296 37.418 24.0908 37.68 24.0741C38.1238 24.0242 38.5676 23.9854 39.0167 23.9632C39.0167 23.9522 39.0435 23.7969 39.0702 23.6583Z" fill="url(#paint2_linear)"/>
<path d="M41.7649 14.1769C41.8005 14.2387 41.8309 14.3036 41.8558 14.3709C41.8879 14.4375 41.9253 14.5206 41.952 14.5927C41.9787 14.6648 42.075 14.8699 42.1392 15.0197C42.2728 14.7313 42.4119 14.4652 42.5509 14.1658C44.4504 10.172 46.8329 6.44549 49.6409 3.0763L49.9992 2.66044C50.1168 2.53846 50.2398 2.39984 50.3521 2.27785H51.1701C51.1701 3.22046 51.1701 4.14643 51.1701 5.10012C51.1701 5.21656 51.1701 5.32746 51.1701 5.43835C51.2397 10.5118 51.3519 15.3191 51.2824 19.5719C51.245 21.9672 51.1488 24.1796 50.9616 26.1757C50.846 27.4357 50.6676 28.6886 50.4269 29.9294C50.146 31.6749 49.5059 33.3372 48.5501 34.8033C48.3969 35.0153 48.2289 35.2154 48.0475 35.4021C48.4699 35.1914 48.8923 34.9918 49.3255 34.8144C50.8445 34.1655 52.4178 33.6625 54.0254 33.3117C54.3569 33.2341 54.6831 33.1676 55.0093 33.1121C55.975 32.9239 56.9494 32.787 57.9287 32.7018C58.319 32.663 58.6986 32.6353 59.0729 32.6131C59.6557 32.5854 60.2118 32.5743 60.7679 32.5743C60.3722 32.164 59.9873 31.737 59.6183 31.3101C58.3859 29.8998 57.3591 28.3101 56.5706 26.5915C54.5868 22.2389 53.3624 15.5686 53.218 3.18719V3.00976C53.218 2.41647 53.218 1.8121 53.218 1.18554V0.109863H49.5072C49.4689 0.145942 49.4332 0.184857 49.4003 0.226303L49.2025 0.425913C49.0474 0.581166 48.8923 0.747508 48.7373 0.919394C47.8978 1.83982 47.0477 2.88223 46.2082 3.99118C45.5452 4.89497 44.8821 5.8653 44.2298 6.87444C43.745 7.63961 43.2691 8.42512 42.8022 9.23095C42.1873 10.3066 41.5884 11.4488 41.027 12.5578L41.2141 12.9459C41.4066 13.3618 41.5884 13.7665 41.7649 14.1769Z" fill="url(#paint3_linear)"/>
<path d="M21.8476 32.602C23.0393 32.6667 24.2264 32.8019 25.4033 33.0068C25.5744 33.0068 25.7294 33.0567 25.8952 33.0899C27.8477 33.4526 29.7582 34.0269 31.595 34.8033C32.0228 34.9807 32.4559 35.1803 32.8783 35.391C32.7031 35.2074 32.5389 35.013 32.3864 34.8088C31.425 33.3465 30.786 31.6824 30.515 29.935C30.2707 28.6911 30.0922 27.4342 29.9803 26.1701C29.745 23.736 29.6594 20.9581 29.6434 17.9417C29.6006 13.4172 29.7343 8.37152 29.7824 3.08184C29.7824 2.81569 29.7824 2.52737 29.7824 2.27785H30.5577L31.2368 3.03194C31.4026 3.22046 31.5683 3.41453 31.7287 3.61414C32.6062 4.67878 33.4307 5.78917 34.199 6.94098C34.4075 7.2293 34.6 7.49545 34.7818 7.82813C34.9636 8.16082 35.1721 8.42697 35.3539 8.73193C35.5357 9.03689 35.7336 9.34185 35.9154 9.65235C36.279 10.2734 36.6426 10.8999 36.9848 11.5376C37.1612 11.8536 37.3377 12.1752 37.4927 12.4913C38.0274 13.445 38.4712 14.4153 38.915 15.369L39.1289 15.8236C39.1984 15.99 39.2733 16.1563 39.3428 16.3171C39.423 16.5056 39.5032 16.6886 39.5727 16.8716C39.6422 17.0546 39.7866 17.3651 39.8828 17.6146C39.979 17.8641 40.1288 18.2134 40.2357 18.5073C40.3213 18.7124 40.3961 18.9176 40.471 19.1172C40.5458 19.3168 40.6046 19.4665 40.6688 19.6717C40.6916 19.7259 40.7113 19.7814 40.7276 19.838C40.7704 19.96 40.8132 20.0765 40.8453 20.1873C40.9736 20.5311 41.0805 20.8804 41.1821 21.2076C41.4745 22.1435 41.719 23.0949 41.9146 24.0576C41.9574 24.3015 41.9948 24.5455 42.0323 24.7784C42.0697 25.0113 42.1018 25.2663 42.1125 25.4992C42.1463 25.7713 42.1624 26.0455 42.1606 26.3198C42.1606 26.5693 42.1606 26.8078 42.1285 27.0295C42.109 27.2692 42.0697 27.5066 42.0109 27.7393C41.9771 27.871 41.9361 28.0006 41.8879 28.1274C41.8063 28.3398 41.6781 28.5296 41.5136 28.6819C41.4134 28.7766 41.2975 28.8518 41.1714 28.9037C41.1449 28.9084 41.1178 28.9084 41.0912 28.9037C41.0246 28.9314 40.9543 28.9482 40.8827 28.9536C40.7605 28.9719 40.6372 28.9812 40.5137 28.9813C40.3992 28.9812 40.2847 28.9719 40.1715 28.9536C40.1577 28.9586 40.1426 28.9586 40.1288 28.9536C40.0662 28.9567 40.0035 28.953 39.9416 28.9425C39.8672 28.9192 39.7955 28.8876 39.7277 28.8482C39.6582 28.8084 39.5935 28.76 39.5353 28.7041C39.4902 28.674 39.4519 28.6343 39.423 28.5876C39.3162 28.4521 39.2297 28.3007 39.1663 28.1385C39.1235 28.0387 39.0915 27.9278 39.054 27.8114C39.0564 27.7874 39.0564 27.7632 39.054 27.7393C38.7974 27.7393 38.5193 27.7781 38.2894 27.8114C37.851 27.8502 37.4125 27.9056 36.9848 27.9777V28.0886C37.0329 28.3779 37.1008 28.6632 37.1879 28.9425L37.3002 29.2031C37.4572 29.5278 37.6569 29.8282 37.8937 30.0958C37.9816 30.197 38.0763 30.2915 38.1771 30.3786C38.2573 30.4396 38.3375 30.5061 38.4231 30.5615C38.5895 30.6811 38.769 30.7798 38.9578 30.8554C39.0978 30.916 39.2406 30.9696 39.3855 31.0162C39.4805 31.0455 39.5769 31.0695 39.6743 31.0883C39.7116 31.0924 39.7492 31.0924 39.7866 31.0883L40.0593 31.1271H40.1341C40.2623 31.1355 40.3909 31.1355 40.5191 31.1271H41.0966C41.2775 31.1059 41.4564 31.0688 41.6313 31.0162C41.7946 30.9693 41.9538 30.9081 42.1071 30.8332C42.2617 30.7619 42.4117 30.6805 42.5563 30.5893L42.6258 30.5394L42.7541 30.434C43.0244 30.2304 43.2579 29.9788 43.4439 29.691C43.6022 29.4585 43.7332 29.2072 43.8342 28.9425C43.955 28.6222 44.0498 28.2921 44.1176 27.9555C44.1644 27.7323 44.1983 27.5064 44.2192 27.2791C44.2469 27.038 44.2612 26.7955 44.262 26.5527C44.262 26.2866 44.262 25.9982 44.262 25.7432C44.2518 25.4981 44.2286 25.2537 44.1924 25.0113C44.1728 24.762 44.1407 24.514 44.0962 24.2683C43.6368 21.7175 42.8958 19.23 41.8879 16.855C41.8131 16.6664 41.7435 16.489 41.6687 16.3005L41.4708 15.8181C41.3693 15.5852 41.2784 15.3745 41.1821 15.1638C41.0377 14.8422 40.8987 14.5206 40.7383 14.2046C40.6742 14.0493 40.6046 13.9107 40.5351 13.7555L40.3319 13.3618L40.0486 12.8073C39.8882 12.4857 39.7224 12.153 39.5566 11.837C39.3909 11.5209 39.2037 11.1993 39.0326 10.8666C38.8615 10.534 38.6904 10.2345 38.4979 9.9185C38.3055 9.60245 38.1504 9.29194 37.9633 8.99253C37.2682 7.7616 36.5303 6.58057 35.771 5.47162C34.5646 3.67657 33.216 1.98883 31.7394 0.425913L31.4346 0.109863H27.7239V1.18554C27.7239 14.9143 26.4352 22.0504 24.3232 26.6303C23.9295 27.4909 23.4738 28.3194 22.9597 29.1088C22.1346 30.3506 21.1963 31.5074 20.1579 32.5632C20.5857 32.5632 21.0241 32.5632 21.4733 32.5632L21.8476 32.602Z" fill="url(#paint4_linear)"/>
<path d="M35.9637 25.1167L35.5092 25.1999C33.8736 25.5067 32.2708 25.9784 30.7237 26.6082L30.6114 26.6526C30.6862 27.4566 30.7985 28.2162 30.9268 28.937C30.9574 28.919 30.9897 28.9041 31.0231 28.8926C32.4749 28.2717 33.9807 27.7964 35.5199 27.4732C35.9155 27.39 36.3219 27.3179 36.7283 27.2625C36.9796 27.2181 37.263 27.1849 37.5036 27.1627C37.926 27.0962 38.3537 27.0518 38.7815 27.0241L39.5622 26.9797H41.2892C41.3114 26.7587 41.3221 26.5366 41.3213 26.3143C41.3231 26.04 41.307 25.7658 41.2732 25.4937C41.2732 25.2608 41.225 25.0224 41.193 24.7729C41.1953 24.7677 41.1966 24.762 41.1966 24.7563C41.1966 24.7505 41.1953 24.7448 41.193 24.7396H39.8883C39.5515 24.7396 39.2199 24.7396 38.8777 24.7785C38.5355 24.8173 38.343 24.8117 38.0917 24.8394C37.6479 24.8783 37.2041 24.9337 36.7657 25.0002C36.4984 25.028 36.2257 25.0612 35.9637 25.1167Z" fill="url(#paint5_linear)"/>
<path d="M44.9035 27.3844L45.3366 27.4731C46.877 27.7962 48.3844 28.2696 49.8388 28.887L49.935 28.9258C50.058 28.2106 50.1703 27.4509 50.2451 26.647L50.1382 26.6026C48.5901 25.9771 46.9875 25.5073 45.3527 25.1998L44.8821 25.1166C44.9089 25.3218 44.9249 25.5325 44.9356 25.7265C44.9463 25.9206 44.9356 26.281 44.9356 26.5361C44.9356 26.7911 44.9356 27.024 44.8928 27.2624C44.9089 27.3068 44.9089 27.3511 44.9035 27.3844Z" fill="url(#paint6_linear)"/>
<path d="M111.738 20.8965L111.299 12.9342V12.5971C111.263 12.2018 111.352 11.8052 111.553 11.4674C111.646 11.3654 111.76 11.2869 111.886 11.2379C112.013 11.1889 112.148 11.1708 112.283 11.185H112.485V10.274H109.744V10.3742C109.278 11.5768 108.725 12.9797 108.092 14.5285C107.539 15.8768 107.047 17.1158 106.616 18.2272L105.869 20.2041C105.413 19.1382 104.806 17.6806 104.06 15.8586L101.696 10.274H98.8763V11.3672L100.089 11.3126L99.7285 20.5139C99.7279 20.9027 99.6502 21.2872 99.5001 21.6436C99.3859 21.8622 99.1135 21.9715 98.7006 21.9806H98.5601V22.8916H102.074V21.8166L100.827 21.8895C100.827 21.598 100.827 21.2791 100.827 20.9785C100.839 20.8452 100.839 20.711 100.827 20.5777C100.827 19.1291 100.906 16.7331 101.011 13.2895C101.38 14.2916 101.758 15.2573 102.136 16.1774C102.628 17.3618 103.304 18.9105 104.13 20.8419L105.158 23.0283H105.852L109.665 13.2439L110.069 20.0584C110.069 20.1768 110.069 20.3408 110.069 20.5594C110.098 20.9382 110.022 21.3177 109.849 21.6527C109.757 21.7696 109.637 21.8608 109.503 21.918C109.368 21.9753 109.221 21.9968 109.076 21.9806H108.935V22.8916H112.994V21.8258H111.764C111.771 21.5157 111.763 21.2056 111.738 20.8965Z" fill="#1C2023"/>
<path d="M124.134 19.2931C124.2 20.0084 123.991 20.7219 123.554 21.2791C123.073 21.6874 122.462 21.8952 121.841 21.8622H118.775C118.775 21.5707 118.775 21.1698 118.775 20.6505V16.8242L120.391 16.7605C120.668 16.7496 120.944 16.7865 121.208 16.8698C121.295 16.9025 121.374 16.9534 121.44 17.0193C121.507 17.0851 121.559 17.1645 121.595 17.2524C121.7 17.5433 121.748 17.8531 121.735 18.1635V18.3092H122.57V14.3554H121.568L121.691 15.8586H118.81V13.1893C118.8 12.7843 118.821 12.3792 118.871 11.9776C118.9 11.7724 119.004 11.5866 119.161 11.4583C119.399 11.3089 119.674 11.236 119.952 11.2488L121.402 11.185C121.965 11.1221 122.531 11.2851 122.983 11.6405C123.191 11.8885 123.346 12.1785 123.44 12.4922C123.534 12.8059 123.564 13.1363 123.528 13.4626V13.6083H124.406L124.292 10.274H115.893V11.349L117.097 11.2761C117.097 11.595 117.097 11.9685 117.097 12.3876V19.9399C117.097 20.523 117.097 20.9421 117.097 21.1789C117.083 21.3812 116.995 21.5703 116.851 21.7073C116.639 21.8793 116.373 21.9636 116.104 21.9442H115.964V22.8552H124.916L125.021 19.1474H124.143L124.134 19.2931Z" fill="#1C2023"/>
<path d="M137.795 19.9762C137.365 20.5966 136.791 21.0948 136.126 21.4248C135.466 21.7585 134.742 21.9329 134.009 21.9349C133.227 21.9372 132.463 21.6994 131.812 21.2517C131.115 20.772 130.554 20.1085 130.187 19.3294C129.782 18.4515 129.58 17.4875 129.598 16.5144C129.585 15.5154 129.786 14.5258 130.187 13.6173C130.509 12.8484 131.032 12.1886 131.698 11.7133C132.315 11.271 133.048 11.0357 133.798 11.0391C134.654 11.0144 135.484 11.3419 136.108 11.9501C136.749 12.5915 137.142 13.453 137.215 14.3735V14.5101H138.094V10.1554H136.864L136.934 10.9662C135.955 10.3587 134.833 10.0435 133.692 10.0552C132.532 10.0206 131.388 10.3543 130.415 11.0118C129.525 11.6347 128.819 12.5021 128.377 13.5171C127.922 14.5458 127.688 15.6649 127.692 16.7968C127.68 17.9174 127.94 19.0232 128.447 20.0127C128.933 20.9585 129.656 21.7514 130.538 22.3085C131.458 22.8744 132.509 23.1674 133.578 23.1557C134.468 23.1453 135.347 22.9469 136.161 22.5726C137.092 22.1208 137.887 21.4155 138.463 20.532L138.542 20.4226L137.883 19.876L137.795 19.9762Z" fill="#1C2023"/>
<path d="M151.06 10.274H140.957L140.843 14.2643H141.722V14.1185C141.668 13.3518 141.813 12.584 142.143 11.8956C142.295 11.6668 142.503 11.4844 142.745 11.3674C142.988 11.2504 143.256 11.2031 143.523 11.2306H145.122V20.4957C145.145 20.876 145.082 21.2567 144.937 21.6071C144.823 21.8166 144.542 21.9351 144.111 21.9533H143.98V22.8643H148.223V21.7893L146.844 21.8622C146.844 21.5616 146.844 21.1425 146.844 20.6323V11.2397H148.196C148.63 11.2152 149.062 11.3161 149.444 11.5312C149.74 11.7527 149.952 12.0752 150.041 12.4422C150.183 13.0042 150.251 13.5833 150.243 14.1641V14.3098H151.122L151.017 10.4653L151.06 10.274Z" fill="#1C2023"/>
<path d="M162.156 19.2931C162.222 20.0084 162.014 20.7219 161.577 21.2791C161.084 21.6983 160.455 21.9068 159.819 21.8622H156.753C156.753 21.5707 156.753 21.1698 156.753 20.6505V16.8242L158.37 16.7605C158.646 16.7496 158.922 16.7865 159.187 16.8698C159.273 16.9025 159.352 16.9534 159.419 17.0193C159.485 17.0851 159.538 17.1645 159.574 17.2524C159.679 17.5433 159.726 17.8531 159.714 18.1635V18.3092H160.593V14.3554H159.591L159.714 15.8586H156.833V13.1893C156.823 12.7843 156.843 12.3792 156.894 11.9776C156.923 11.7724 157.027 11.5866 157.184 11.4583C157.422 11.3104 157.697 11.2376 157.975 11.2488H159.433C159.997 11.1859 160.563 11.3488 161.014 11.7043C161.222 11.9523 161.378 12.2423 161.471 12.556C161.565 12.8696 161.595 13.2001 161.559 13.5263V13.6721H162.437L162.314 10.274H153.907V11.349L155.111 11.2761C155.111 11.595 155.111 11.9685 155.111 12.3876V19.9399C155.111 20.523 155.111 20.9421 155.111 21.1789C155.097 21.3812 155.009 21.5703 154.865 21.7073C154.652 21.8793 154.386 21.9636 154.118 21.9442H153.907V22.8552H162.903L163.009 19.1474H162.13L162.156 19.2931Z" fill="#1C2023"/>
<path d="M172.031 11.3855L173.235 11.3126C173.235 11.6405 173.235 12.0049 173.235 12.424V16.3232C172.911 16.497 172.569 16.6315 172.215 16.724C171.767 16.8387 171.307 16.8969 170.845 16.8971C170.186 16.9442 169.534 16.7329 169.018 16.305C168.823 16.1142 168.667 15.884 168.562 15.6286C168.456 15.3732 168.402 15.098 168.403 14.82V13.4899C168.395 13.0029 168.418 12.516 168.473 12.0323C168.492 11.794 168.588 11.5694 168.745 11.3946C168.944 11.2448 169.186 11.1708 169.431 11.185H169.571V10.274H165.451V11.349L166.646 11.2761C166.646 11.4766 166.646 11.7772 166.646 12.1871C166.646 12.5971 166.646 13.4444 166.646 14.4192C166.605 14.9127 166.662 15.4096 166.813 15.8795C166.964 16.3494 167.206 16.7825 167.524 17.1522C167.9 17.4855 168.335 17.7377 168.806 17.8941C169.277 18.0505 169.773 18.108 170.265 18.0632C170.835 18.0661 171.403 18.0081 171.961 17.8901C172.397 17.805 172.824 17.6737 173.235 17.4984V19.9764C173.235 20.5685 173.235 20.9876 173.235 21.2154C173.214 21.4177 173.124 21.6055 172.98 21.7438C172.768 21.9165 172.502 22.001 172.233 21.9806H172.101V22.8916H176.178V21.8166L174.974 21.8895C174.974 21.5889 174.974 21.1789 174.974 20.6596V13.1893C174.974 12.5971 174.974 12.1871 174.974 11.9503C174.991 11.7489 175.079 11.561 175.22 11.4219C175.432 11.25 175.698 11.1656 175.967 11.185H176.107V10.274H172.031V11.3855Z" fill="#1C2023"/>
<path d="M189.136 21.8713C188.883 21.7515 188.654 21.5848 188.459 21.3794C188.091 20.989 187.751 20.5719 187.44 20.1313L185.534 17.5622L185.253 17.1887C185.099 16.9821 184.935 16.7844 184.761 16.5965C184.593 16.4223 184.411 16.2638 184.216 16.1228L185.789 13.5172C186.084 12.9993 186.441 12.5219 186.852 12.096C187.133 11.8122 187.468 11.5919 187.836 11.4492C188.248 11.3094 188.676 11.2237 189.109 11.1941H189.241V10.274H185.332V11.2944H186.122C185.773 11.673 185.458 12.0847 185.182 12.5242L183.118 15.9041H182.072V13.1711C182.072 12.5789 182.072 12.1689 182.072 11.9321C182.096 11.7326 182.183 11.5468 182.318 11.4037C182.534 11.2319 182.803 11.1477 183.074 11.1668H183.206V10.274H179.156V11.349L180.359 11.2761C180.359 11.595 180.359 11.9685 180.359 12.3876V19.9399C180.359 20.523 180.359 20.9421 180.359 21.1789C180.342 21.3803 180.255 21.5682 180.113 21.7073C179.901 21.8793 179.635 21.9636 179.367 21.9442H179.226V22.8552H183.302V21.7802L182.108 21.8531C182.108 21.5524 182.108 21.1516 182.108 20.6232V16.8971H182.749C182.935 17.0314 183.104 17.1907 183.25 17.3709C183.443 17.5986 183.68 17.8993 183.944 18.2819L185.973 21.1152C187.124 22.6912 187.546 22.9372 187.783 22.9372H189.926V22.0262H189.786C189.562 22.0144 189.342 21.962 189.136 21.8713Z" fill="#1C2023"/>
<path d="M200.803 11.0119C199.799 10.3407 198.623 10.0008 197.429 10.0371C196.26 10.003 195.11 10.3434 194.135 11.0119C193.251 11.6344 192.546 12.494 192.096 13.499C191.647 14.4621 191.413 15.5176 191.411 16.5874C191.412 17.6719 191.636 18.7436 192.07 19.7304C192.513 20.7304 193.219 21.58 194.108 22.1811C195.142 22.8473 196.344 23.1802 197.561 23.1376C198.73 23.1685 199.881 22.825 200.855 22.1537C201.739 21.5312 202.444 20.6717 202.893 19.6666C203.347 18.7052 203.583 17.6488 203.583 16.5783C203.583 15.5078 203.347 14.4514 202.893 13.4899C202.425 12.4835 201.702 11.6272 200.803 11.0119ZM199.757 21.3794C199.106 21.8865 198.308 22.1492 197.494 22.1243C196.68 22.0995 195.898 21.7887 195.277 21.2427C194.619 20.6305 194.121 19.8567 193.827 18.9925C193.517 18.1171 193.356 17.1921 193.353 16.2594C193.352 15.3922 193.51 14.5328 193.818 13.7268C194.106 12.9633 194.582 12.2912 195.198 11.7772C195.832 11.2738 196.612 11.0094 197.411 11.0276C198.209 11.0458 198.978 11.3456 199.59 11.8774C200.252 12.4762 200.76 13.2372 201.066 14.0912C201.405 14.9913 201.578 15.9492 201.576 16.9154C201.577 17.7767 201.419 18.6304 201.11 19.4298C200.83 20.1904 200.364 20.8622 199.757 21.3794Z" fill="#1C2023"/>
<path d="M206.944 20.5868C206.791 20.5875 206.641 20.6211 206.502 20.6854C206.362 20.7497 206.238 20.8433 206.135 20.9603C205.917 21.21 205.797 21.5346 205.797 21.8714C205.797 22.2081 205.917 22.5328 206.135 22.7824C206.235 22.9004 206.358 22.995 206.496 23.0598C206.634 23.1247 206.783 23.1582 206.935 23.1582C207.086 23.1582 207.236 23.1247 207.374 23.0598C207.512 22.995 207.634 22.9004 207.734 22.7824C207.957 22.5365 208.077 22.2089 208.068 21.8714C208.078 21.5387 207.968 21.2143 207.761 20.9603C207.659 20.8394 207.534 20.7432 207.392 20.6786C207.251 20.614 207.098 20.5827 206.944 20.5868Z" fill="#1C2023"/>
<path d="M218.988 11.1849C217.807 10.495 216.457 10.1783 215.105 10.2739H211.204V11.3397L212.408 11.2669C212.408 11.5857 212.364 11.9592 212.364 12.3783V19.9307C212.364 20.5137 212.364 20.9328 212.364 21.1697C212.344 21.372 212.253 21.5598 212.109 21.6981C211.897 21.8708 211.631 21.9553 211.362 21.9349H211.231V22.846H215.623V21.7527L214.086 21.8438C214.086 21.5432 214.086 21.1423 214.086 20.6139V18.2453H214.56C215.721 18.2929 216.878 18.0784 217.951 17.6167C218.712 17.2986 219.357 16.741 219.796 16.0224C220.147 15.4138 220.332 14.718 220.332 14.009C220.363 13.4579 220.255 12.9079 220.02 12.4129C219.784 11.9178 219.429 11.4947 218.988 11.1849ZM216.774 16.8696C216.241 17.1298 215.659 17.2607 215.07 17.2523C214.692 17.2523 214.376 17.2523 214.112 17.2523V13.1891C214.112 12.5878 214.112 12.1688 214.112 11.9501C214.131 11.7609 214.211 11.584 214.341 11.4491C214.539 11.2928 214.787 11.2211 215.035 11.2486C215.913 11.1989 216.783 11.4485 217.512 11.9592C217.817 12.2257 218.056 12.5642 218.209 12.9462C218.362 13.3282 218.424 13.7427 218.391 14.1548C218.401 14.7399 218.249 15.3157 217.951 15.8129C217.664 16.2812 217.256 16.6567 216.774 16.897V16.8696Z" fill="#1C2023"/>
<path d="M234.055 12.8248C232.929 11.8457 231.517 11.2902 230.049 11.2487C230.051 10.967 230.123 10.6907 230.26 10.447C230.365 10.3389 230.492 10.256 230.632 10.2041C230.771 10.1522 230.92 10.1325 231.068 10.1464H231.217V9.23535H227.141V10.3012L228.353 10.2375C228.319 10.5582 228.302 10.8805 228.3 11.2032C226.825 11.226 225.412 11.8207 224.338 12.8703C223.392 13.9366 222.893 15.3489 222.95 16.7968C222.925 17.429 223.043 18.0584 223.293 18.6355C223.543 19.2126 223.919 19.7215 224.391 20.1221C225.526 20.988 226.892 21.4686 228.3 21.4977C228.288 21.8149 228.211 22.1256 228.072 22.4087C227.98 22.5348 227.858 22.6339 227.718 22.6962C227.578 22.7585 227.424 22.7818 227.273 22.764H227.141V23.675H231.217V22.6L230.005 22.6729C230.024 22.2936 230.024 21.9135 230.005 21.5341C231.482 21.5514 232.921 21.0434 234.081 20.0947C234.549 19.6443 234.917 19.0945 235.161 18.4829C235.406 17.8713 235.52 17.2123 235.496 16.5509C235.521 15.8597 235.406 15.1708 235.158 14.5288C234.909 13.8868 234.534 13.3063 234.055 12.8248ZM232.667 19.5481C231.927 20.1924 230.997 20.5556 230.031 20.5776V12.2873C232.421 12.5697 233.545 14.1093 233.545 16.897C233.584 17.3779 233.525 17.8618 233.374 18.3181C233.223 18.7744 232.982 19.1932 232.667 19.5481ZM225.788 13.508C226.446 12.788 227.338 12.3466 228.292 12.2691V20.532C227.347 20.4704 226.454 20.0637 225.77 19.3841C225.129 18.5786 224.814 17.5466 224.892 16.5053C224.825 15.426 225.144 14.359 225.788 13.508Z" fill="#1C2023"/>
<path d="M101.055 36.6117C100.701 36.615 100.349 36.5627 100.01 36.4568C99.7225 36.369 99.4562 36.2201 99.2278 36.0195C99.0117 35.8302 98.8429 35.5895 98.7358 35.318C98.6184 35.0298 98.5587 34.7199 98.5601 34.407V34.3524H99.1311C99.1127 34.6049 99.1516 34.8584 99.2447 35.0925C99.3377 35.3266 99.4824 35.5349 99.667 35.7007C100.083 36.0106 100.588 36.1648 101.099 36.138C101.342 36.1403 101.583 36.0971 101.811 36.0104C102.007 35.9363 102.189 35.8251 102.347 35.6824C102.486 35.5408 102.599 35.3741 102.68 35.1905C102.759 35.0038 102.798 34.8019 102.795 34.5983C102.796 34.4223 102.76 34.2481 102.689 34.0882C102.615 33.9338 102.51 33.7973 102.382 33.6873C102.247 33.5776 102.095 33.4915 101.934 33.4322C101.753 33.3689 101.562 33.3381 101.371 33.3411H100.37V32.8127H101.371C101.532 32.8121 101.692 32.7876 101.846 32.7398C101.994 32.6968 102.131 32.6224 102.25 32.5212C102.366 32.4278 102.462 32.3098 102.531 32.175C102.597 32.0168 102.63 31.8461 102.628 31.6739C102.637 31.4853 102.602 31.2972 102.525 31.1258C102.448 30.9544 102.333 30.8049 102.188 30.69C102.042 30.5824 101.878 30.5023 101.705 30.4532C101.509 30.4053 101.309 30.3809 101.108 30.3803C100.876 30.3768 100.646 30.4075 100.423 30.4714C100.224 30.5193 100.038 30.6127 99.8779 30.7447C99.7227 30.8688 99.5965 31.0276 99.5089 31.2093C99.4091 31.4068 99.3522 31.6244 99.342 31.847H98.7621C98.7664 31.5309 98.8384 31.2197 98.973 30.936C99.0869 30.6918 99.252 30.477 99.4562 30.3074C99.6734 30.1348 99.9211 30.0079 100.185 29.9339C100.472 29.8533 100.767 29.8134 101.064 29.8155C101.36 29.8122 101.655 29.8458 101.942 29.9157C102.185 29.982 102.414 30.0931 102.619 30.2436C102.809 30.3876 102.965 30.5745 103.076 30.7903C103.193 31.0362 103.251 31.3084 103.243 31.5828C103.243 31.7444 103.217 31.9048 103.164 32.0566C103.115 32.2012 103.043 32.3366 102.953 32.4574C102.867 32.5739 102.766 32.6781 102.654 32.7672C102.551 32.8447 102.438 32.9089 102.32 32.9585C102.634 33.0375 102.914 33.2197 103.12 33.4778C103.32 33.8023 103.406 34.1881 103.366 34.571C103.363 34.7947 103.325 35.0164 103.251 35.2269C103.165 35.4745 103.031 35.7009 102.856 35.892C102.651 36.1099 102.406 36.2833 102.136 36.4021C101.793 36.5469 101.425 36.6182 101.055 36.6117Z" fill="#1C2023"/>
<path d="M106.054 29.9703H110.394V30.4987H106.651V32.8491H110.165V33.3775H106.651V35.9466H110.394V36.475H106.001L106.054 29.9703Z" fill="#1C2023"/>
<path d="M112.968 29.9703H113.846L116.016 35.6733L118.177 29.9703H119.056V36.475H118.458V30.854L116.315 36.475H115.753L113.6 30.854V36.475H113.003L112.968 29.9703Z" fill="#1C2023"/>
<path d="M121.999 29.9703H126.33V30.4987H122.596V32.8491H126.111V33.3775H122.596V35.9466H126.374V36.475H121.981L121.999 29.9703Z" fill="#1C2023"/>
<path d="M128.579 36.5296V36.0103C128.652 36.019 128.726 36.019 128.799 36.0103H129.238C129.347 35.9906 129.446 35.9327 129.519 35.8463C129.642 35.7176 129.74 35.5662 129.809 35.3999C129.929 35.1081 130.015 34.8022 130.064 34.4889C130.148 34.0097 130.206 33.5261 130.24 33.0404C130.292 32.4573 130.31 31.7376 130.31 30.8903V29.9793H134.167V36.484H133.569V30.4986H130.89V30.8539C130.89 31.7649 130.89 32.594 130.802 33.2408C130.778 33.7893 130.711 34.3347 130.6 34.8715C130.532 35.2107 130.419 35.5387 130.266 35.8463C130.167 36.0357 130.036 36.2054 129.879 36.3474C129.764 36.4413 129.628 36.504 129.484 36.5296H128.579Z" fill="#1C2023"/>
<path d="M137.118 29.9703H137.716V32.7034H139.903C140.152 32.6869 140.402 32.7227 140.638 32.8088C140.873 32.8949 141.09 33.0295 141.274 33.2044C141.586 33.5862 141.757 34.0705 141.757 34.571C141.757 35.0714 141.586 35.5557 141.274 35.9375C141.088 36.1107 140.872 36.2442 140.637 36.3302C140.402 36.4162 140.152 36.453 139.903 36.4386H137.118V29.9703ZM139.754 35.9466C139.94 35.9591 140.126 35.9333 140.303 35.8708C140.479 35.8083 140.642 35.7102 140.782 35.5822C140.906 35.4542 141.002 35.3002 141.064 35.1306C141.126 34.9609 141.153 34.7794 141.142 34.5983C141.151 34.4152 141.122 34.2323 141.059 34.0612C140.995 33.8902 140.898 33.7349 140.773 33.6053C140.487 33.3535 140.119 33.2262 139.745 33.25H137.716V35.983L139.754 35.9466Z" fill="#1C2023"/>
<path d="M144.349 29.9703H144.946V32.7945H148.671V29.9703H149.268V36.475H148.671V33.3229H144.946V36.475H144.349V29.9703Z" fill="#1C2023"/>
<path d="M154.197 29.9703H154.865L157.324 36.475H156.683L155.919 34.4525H153.064L152.308 36.475H151.684L154.197 29.9703ZM155.717 33.9606L154.504 30.6262L153.248 33.9606H155.717Z" fill="#1C2023"/>
<path d="M161.568 33.651C161.325 33.6366 161.086 33.5876 160.856 33.5052C160.647 33.4219 160.454 33.3017 160.285 33.1499C160.12 32.997 159.991 32.8069 159.907 32.5942C159.808 32.359 159.76 32.1039 159.767 31.8471C159.762 31.5797 159.807 31.3138 159.899 31.0637C159.982 30.8383 160.115 30.6358 160.285 30.4715C160.459 30.3085 160.662 30.1818 160.883 30.098C161.135 30.0107 161.399 29.9676 161.664 29.9704H164.3V36.4751H163.703V33.6874H162.297L160.206 36.4751H159.433L161.568 33.651ZM163.694 33.159V30.4988H161.796C161.417 30.4768 161.044 30.6037 160.751 30.8541C160.622 30.9814 160.52 31.1359 160.454 31.3072C160.387 31.4785 160.357 31.6626 160.364 31.8471C160.354 32.0279 160.384 32.2086 160.451 32.3758C160.518 32.543 160.62 32.6924 160.751 32.8128C161.047 33.0561 161.419 33.1792 161.796 33.159H163.694Z" fill="#1C2023"/>
<path d="M171.161 29.9703H171.759V33.4686L175.404 29.9703H176.213L173.41 32.6578L176.344 36.475H175.571L172.936 33.086L171.732 34.243V36.475H171.135L171.161 29.9703Z" fill="#1C2023"/>
<path d="M180.895 36.6026C180.447 36.6134 180.002 36.5168 179.595 36.3202C179.254 36.143 178.954 35.8913 178.717 35.5823C178.468 35.2638 178.28 34.8989 178.163 34.5073C177.917 33.6699 177.917 32.7756 178.163 31.9382C178.28 31.5438 178.468 31.1759 178.717 30.8541C178.957 30.5451 179.256 30.2908 179.595 30.107C180.004 29.9178 180.448 29.8244 180.895 29.8337C181.34 29.8234 181.781 29.9168 182.187 30.107C182.526 30.2908 182.825 30.5451 183.065 30.8541C183.314 31.1759 183.502 31.5438 183.619 31.9382C183.865 32.7756 183.865 33.6699 183.619 34.5073C183.502 34.8989 183.314 35.2638 183.065 35.5823C182.827 35.8913 182.528 36.143 182.187 36.3202C181.783 36.5176 181.341 36.6144 180.895 36.6026ZM180.895 36.0742C181.264 36.0845 181.629 36 181.958 35.8283C182.249 35.6733 182.499 35.4484 182.687 35.1723C182.883 34.8996 183.026 34.5903 183.109 34.2613C183.205 33.921 183.252 33.5681 183.25 33.2136C183.25 32.8623 183.203 32.5126 183.109 32.1751C183.024 31.8468 182.881 31.5379 182.687 31.264C182.496 30.9932 182.246 30.7718 181.958 30.6172C181.629 30.4454 181.264 30.3609 180.895 30.3712C180.524 30.3609 180.156 30.4454 179.824 30.6172C179.535 30.7741 179.283 30.9949 179.086 31.264C178.897 31.5415 178.755 31.8493 178.664 32.1751C178.577 32.5139 178.533 32.863 178.532 33.2136C178.531 33.5674 178.575 33.9197 178.664 34.2613C178.754 34.5874 178.897 34.8954 179.086 35.1723C179.28 35.4467 179.532 35.6711 179.824 35.8283C180.156 36.0001 180.524 36.0845 180.895 36.0742Z" fill="#1C2023"/>
<path d="M186.465 29.9703H187.344L189.514 35.6733L191.675 29.9703H192.553V36.475H191.956V30.854L189.812 36.475H189.25L187.098 30.854V36.475H186.5L186.465 29.9703Z" fill="#1C2023"/>
<path d="M195.496 29.9703H200.328V36.475H199.731V30.4987H196.094V36.475H195.496V29.9703Z" fill="#1C2023"/>
<path d="M205.274 29.9703H205.942L208.402 36.475H207.76L206.996 34.4525H204.132L203.377 36.475H202.744L205.274 29.9703ZM206.794 33.9241L205.582 30.5898L204.317 33.9606L206.794 33.9241Z" fill="#1C2023"/>
<path d="M210.8 29.9703H211.424V32.7945H215.149V29.9703H215.746V36.475H215.149V33.3229H211.424V36.475H210.826L210.8 29.9703Z" fill="#1C2023"/>
<path d="M218.68 29.9703H219.278V35.7827L222.88 29.943H223.653V36.4477H223.056V30.6081L219.454 36.4477H218.68V29.9703Z" fill="#1C2023"/>
<path d="M228.248 33.651C228.005 33.6366 227.766 33.5876 227.536 33.5052C227.327 33.4219 227.134 33.3017 226.965 33.1499C226.803 32.9944 226.674 32.805 226.587 32.5942C226.488 32.359 226.44 32.1039 226.447 31.8471C226.442 31.5797 226.487 31.3138 226.578 31.0637C226.662 30.8383 226.794 30.6358 226.965 30.4715C227.141 30.3104 227.343 30.1839 227.562 30.098C227.814 30.0107 228.079 29.9676 228.344 29.9704H230.98V36.4751H230.382V33.6874H228.994L226.904 36.4751H226.13L228.248 33.651ZM230.374 33.159V30.4988H228.476C228.097 30.4786 227.725 30.6052 227.431 30.8541C227.302 30.9814 227.2 31.1359 227.134 31.3072C227.067 31.4785 227.036 31.6626 227.044 31.8471C227.034 32.0279 227.064 32.2086 227.131 32.3758C227.198 32.543 227.3 32.6924 227.431 32.8128C227.728 33.0547 228.099 33.1775 228.476 33.159H230.374Z" fill="#1C2023"/>
<defs>
<linearGradient id="paint0_linear" x1="40.4417" y1="0.109863" x2="40.4417" y2="45.7375" gradientUnits="userSpaceOnUse">
<stop stop-color="#F0805A"/>
<stop offset="1" stop-color="#A3C666"/>
</linearGradient>
<linearGradient id="paint1_linear" x1="40.4417" y1="0.109863" x2="40.4417" y2="45.7375" gradientUnits="userSpaceOnUse">
<stop stop-color="#F0805A"/>
<stop offset="1" stop-color="#A3C666"/>
</linearGradient>
<linearGradient id="paint2_linear" x1="40.4417" y1="0.109863" x2="40.4417" y2="45.7375" gradientUnits="userSpaceOnUse">
<stop stop-color="#F0805A"/>
<stop offset="1" stop-color="#A3C666"/>
</linearGradient>
<linearGradient id="paint3_linear" x1="40.4417" y1="0.109863" x2="40.4417" y2="45.7375" gradientUnits="userSpaceOnUse">
<stop stop-color="#F0805A"/>
<stop offset="1" stop-color="#A3C666"/>
</linearGradient>
<linearGradient id="paint4_linear" x1="40.4417" y1="0.109863" x2="40.4417" y2="45.7375" gradientUnits="userSpaceOnUse">
<stop stop-color="#F0805A"/>
<stop offset="1" stop-color="#A3C666"/>
</linearGradient>
<linearGradient id="paint5_linear" x1="40.4417" y1="0.109863" x2="40.4417" y2="45.7375" gradientUnits="userSpaceOnUse">
<stop stop-color="#F0805A"/>
<stop offset="1" stop-color="#A3C666"/>
</linearGradient>
<linearGradient id="paint6_linear" x1="40.4417" y1="0.109863" x2="40.4417" y2="45.7375" gradientUnits="userSpaceOnUse">
<stop stop-color="#F0805A"/>
<stop offset="1" stop-color="#A3C666"/>
</linearGradient>
</defs>
</svg>
