<svg width="565" height="300" viewBox="0 0 565 300" fill="none" xmlns="http://www.w3.org/2000/svg">
<g clip-path="url(#clip0)">
<path d="M299.971 120.029C302.199 122.258 303.967 124.904 305.173 127.816C306.38 130.728 307 133.848 307 137C307 140.152 306.38 143.273 305.173 146.185C303.967 149.096 302.199 151.742 299.971 153.971C297.742 156.199 295.096 157.967 292.185 159.173C289.273 160.38 286.152 161 283 161C279.848 161 276.728 160.38 273.816 159.173C270.904 157.967 268.258 156.199 266.029 153.971C261.529 149.47 259 143.365 259 137C259 130.635 261.529 124.53 266.029 120.029C270.53 115.529 276.635 113 283 113C289.365 113 295.47 115.529 299.971 120.029" stroke="#CACACA" stroke-width="1.5" stroke-linecap="round" stroke-linejoin="round"/>
<path d="M273.667 129V131.667" stroke="#CACACA" stroke-width="1.5" stroke-linecap="round" stroke-linejoin="round"/>
<path d="M292.333 129V131.667" stroke="#CACACA" stroke-width="1.5" stroke-linecap="round" stroke-linejoin="round"/>
<path d="M273.667 147.667C273.667 147.667 277.168 144.168 283 144.168C288.835 144.168 292.333 147.667 292.333 147.667" stroke="#CACACA" stroke-width="1.5" stroke-linecap="round" stroke-linejoin="round"/>
</g>
<path d="M192.562 177.456H194.008V185.909H192.562V179.745L188.664 185.909H187.219V177.456H188.664V183.628L192.562 177.456ZM200.977 179.769C200.977 179.373 200.826 179.06 200.523 178.831C200.221 178.597 199.807 178.479 199.281 178.479C198.771 178.479 198.344 178.612 198 178.878C197.661 179.144 197.492 179.456 197.492 179.815H196.055C196.055 179.081 196.362 178.479 196.977 178.011C197.591 177.542 198.359 177.308 199.281 177.308C200.271 177.308 201.042 177.521 201.594 177.948C202.146 178.37 202.422 178.974 202.422 179.761C202.422 180.141 202.307 180.49 202.078 180.808C201.849 181.125 201.523 181.378 201.102 181.565C202.086 181.899 202.578 182.555 202.578 183.534C202.578 184.31 202.279 184.925 201.68 185.378C201.081 185.831 200.281 186.058 199.281 186.058C198.307 186.058 197.503 185.821 196.867 185.347C196.237 184.868 195.922 184.222 195.922 183.409H197.359C197.359 183.821 197.542 184.175 197.906 184.472C198.276 184.763 198.734 184.909 199.281 184.909C199.833 184.909 200.279 184.782 200.617 184.526C200.956 184.271 201.125 183.94 201.125 183.534C201.125 183.06 200.982 182.722 200.695 182.519C200.414 182.31 199.974 182.206 199.375 182.206H197.93V180.987H199.5C200.484 180.961 200.977 180.555 200.977 179.769ZM204.07 181.604C204.07 180.776 204.232 180.032 204.555 179.37C204.883 178.709 205.336 178.198 205.914 177.839C206.497 177.479 207.161 177.3 207.906 177.3C209.057 177.3 209.987 177.698 210.695 178.495C211.409 179.292 211.766 180.352 211.766 181.675V181.776C211.766 182.599 211.607 183.339 211.289 183.995C210.977 184.646 210.526 185.154 209.938 185.519C209.354 185.883 208.682 186.065 207.922 186.065C206.776 186.065 205.846 185.667 205.133 184.87C204.424 184.073 204.07 183.019 204.07 181.706V181.604ZM205.523 181.776C205.523 182.714 205.74 183.466 206.172 184.034C206.609 184.602 207.193 184.886 207.922 184.886C208.656 184.886 209.24 184.599 209.672 184.026C210.104 183.448 210.32 182.641 210.32 181.604C210.32 180.677 210.099 179.927 209.656 179.354C209.219 178.776 208.635 178.487 207.906 178.487C207.193 178.487 206.617 178.771 206.18 179.339C205.742 179.907 205.523 180.719 205.523 181.776ZM217.289 177.94C218.352 177.94 219.201 178.297 219.836 179.011C220.477 179.719 220.797 180.654 220.797 181.815V181.948C220.797 182.745 220.643 183.459 220.336 184.089C220.029 184.714 219.586 185.201 219.008 185.55C218.435 185.894 217.773 186.065 217.023 186.065C215.888 186.065 214.974 185.688 214.281 184.933C213.589 184.172 213.242 183.154 213.242 181.878V181.175C213.242 179.399 213.57 177.987 214.227 176.94C214.888 175.894 215.862 175.256 217.148 175.026C217.878 174.896 218.37 174.737 218.625 174.55C218.88 174.362 219.008 174.104 219.008 173.776H220.195C220.195 174.427 220.047 174.935 219.75 175.3C219.458 175.664 218.99 175.922 218.344 176.073L217.266 176.315C216.406 176.519 215.76 176.862 215.328 177.347C214.901 177.826 214.622 178.466 214.492 179.269C215.258 178.383 216.19 177.94 217.289 177.94ZM217.008 179.128C216.299 179.128 215.737 179.368 215.32 179.847C214.904 180.321 214.695 180.979 214.695 181.823V181.948C214.695 182.854 214.904 183.573 215.32 184.104C215.742 184.631 216.31 184.894 217.023 184.894C217.742 184.894 218.31 184.628 218.727 184.097C219.143 183.565 219.352 182.789 219.352 181.769C219.352 180.972 219.141 180.334 218.719 179.854C218.302 179.37 217.732 179.128 217.008 179.128ZM229.422 181.776C229.422 183.063 229.128 184.099 228.539 184.886C227.951 185.672 227.154 186.065 226.148 186.065C225.122 186.065 224.315 185.74 223.727 185.089V189.159H222.281V177.456H223.602L223.672 178.394C224.26 177.664 225.078 177.3 226.125 177.3C227.141 177.3 227.943 177.683 228.531 178.448C229.125 179.214 229.422 180.279 229.422 181.644V181.776ZM227.977 181.612C227.977 180.659 227.773 179.907 227.367 179.354C226.961 178.802 226.404 178.526 225.695 178.526C224.82 178.526 224.164 178.914 223.727 179.69V183.729C224.159 184.5 224.82 184.886 225.711 184.886C226.404 184.886 226.953 184.612 227.359 184.065C227.771 183.513 227.977 182.696 227.977 181.612ZM236.484 185.909C236.401 185.743 236.333 185.446 236.281 185.019C235.609 185.716 234.807 186.065 233.875 186.065C233.042 186.065 232.357 185.831 231.82 185.362C231.289 184.888 231.023 184.289 231.023 183.565C231.023 182.685 231.357 182.003 232.023 181.519C232.695 181.029 233.638 180.784 234.852 180.784H236.258V180.12C236.258 179.615 236.107 179.214 235.805 178.917C235.503 178.615 235.057 178.464 234.469 178.464C233.953 178.464 233.521 178.594 233.172 178.854C232.823 179.115 232.648 179.43 232.648 179.8H231.195C231.195 179.378 231.344 178.972 231.641 178.581C231.943 178.185 232.349 177.873 232.859 177.644C233.375 177.414 233.94 177.3 234.555 177.3C235.529 177.3 236.292 177.545 236.844 178.034C237.396 178.519 237.682 179.188 237.703 180.042V183.933C237.703 184.709 237.802 185.326 238 185.784V185.909H236.484ZM234.086 184.808C234.539 184.808 234.969 184.69 235.375 184.456C235.781 184.222 236.076 183.917 236.258 183.542V181.808H235.125C233.354 181.808 232.469 182.326 232.469 183.362C232.469 183.815 232.62 184.17 232.922 184.425C233.224 184.68 233.612 184.808 234.086 184.808ZM246.711 182.237H245.695V185.909H244.25V182.237H243.234L240.867 185.909H239.039L242.062 181.534L239.328 177.456H241.078L243.258 180.956H244.25V177.456H245.695V180.956H246.68L248.875 177.456H250.625L247.883 181.542L250.906 185.909H249.078L246.711 182.237ZM255.57 186.065C254.424 186.065 253.492 185.69 252.773 184.94C252.055 184.185 251.695 183.177 251.695 181.917V181.651C251.695 180.813 251.854 180.065 252.172 179.409C252.495 178.748 252.943 178.232 253.516 177.862C254.094 177.487 254.719 177.3 255.391 177.3C256.49 177.3 257.344 177.662 257.953 178.386C258.562 179.11 258.867 180.146 258.867 181.495V182.097H253.141C253.161 182.93 253.404 183.604 253.867 184.12C254.336 184.631 254.93 184.886 255.648 184.886C256.159 184.886 256.591 184.782 256.945 184.573C257.299 184.365 257.609 184.089 257.875 183.745L258.758 184.433C258.049 185.521 256.987 186.065 255.57 186.065ZM255.391 178.487C254.807 178.487 254.318 178.701 253.922 179.128C253.526 179.55 253.281 180.144 253.188 180.909H257.422V180.8C257.38 180.065 257.182 179.498 256.828 179.097C256.474 178.69 255.995 178.487 255.391 178.487ZM267.453 185.909H266.008V182.3H262.125V185.909H260.672V177.456H262.125V181.12H266.008V177.456H267.453V185.909ZM275.25 177.456H276.695V185.909H275.25V179.745L271.352 185.909H269.906V177.456H271.352V183.628L275.25 177.456ZM282.523 186.065C281.378 186.065 280.445 185.69 279.727 184.94C279.008 184.185 278.648 183.177 278.648 181.917V181.651C278.648 180.813 278.807 180.065 279.125 179.409C279.448 178.748 279.896 178.232 280.469 177.862C281.047 177.487 281.672 177.3 282.344 177.3C283.443 177.3 284.297 177.662 284.906 178.386C285.516 179.11 285.82 180.146 285.82 181.495V182.097H280.094C280.115 182.93 280.357 183.604 280.82 184.12C281.289 184.631 281.883 184.886 282.602 184.886C283.112 184.886 283.544 184.782 283.898 184.573C284.253 184.365 284.562 184.089 284.828 183.745L285.711 184.433C285.003 185.521 283.94 186.065 282.523 186.065ZM282.344 178.487C281.76 178.487 281.271 178.701 280.875 179.128C280.479 179.55 280.234 180.144 280.141 180.909H284.375V180.8C284.333 180.065 284.135 179.498 283.781 179.097C283.427 178.69 282.948 178.487 282.344 178.487ZM291.086 181.604C291.086 180.776 291.247 180.032 291.57 179.37C291.898 178.709 292.352 178.198 292.93 177.839C293.513 177.479 294.177 177.3 294.922 177.3C296.073 177.3 297.003 177.698 297.711 178.495C298.424 179.292 298.781 180.352 298.781 181.675V181.776C298.781 182.599 298.622 183.339 298.305 183.995C297.992 184.646 297.542 185.154 296.953 185.519C296.37 185.883 295.698 186.065 294.938 186.065C293.792 186.065 292.862 185.667 292.148 184.87C291.44 184.073 291.086 183.019 291.086 181.706V181.604ZM292.539 181.776C292.539 182.714 292.755 183.466 293.188 184.034C293.625 184.602 294.208 184.886 294.938 184.886C295.672 184.886 296.255 184.599 296.688 184.026C297.12 183.448 297.336 182.641 297.336 181.604C297.336 180.677 297.115 179.927 296.672 179.354C296.234 178.776 295.651 178.487 294.922 178.487C294.208 178.487 293.633 178.771 293.195 179.339C292.758 179.907 292.539 180.719 292.539 181.776ZM306.703 178.628H303.867V185.909H302.422V178.628H299.641V177.456H306.703V178.628ZM310.875 184.886C311.391 184.886 311.841 184.729 312.227 184.417C312.612 184.104 312.826 183.714 312.867 183.245H314.234C314.208 183.729 314.042 184.19 313.734 184.628C313.427 185.065 313.016 185.414 312.5 185.675C311.99 185.935 311.448 186.065 310.875 186.065C309.724 186.065 308.807 185.683 308.125 184.917C307.448 184.146 307.109 183.094 307.109 181.761V181.519C307.109 180.696 307.26 179.964 307.562 179.323C307.865 178.683 308.297 178.185 308.859 177.831C309.427 177.477 310.096 177.3 310.867 177.3C311.815 177.3 312.602 177.584 313.227 178.151C313.857 178.719 314.193 179.456 314.234 180.362H312.867C312.826 179.815 312.617 179.368 312.242 179.019C311.872 178.664 311.414 178.487 310.867 178.487C310.133 178.487 309.562 178.753 309.156 179.284C308.755 179.81 308.555 180.573 308.555 181.573V181.847C308.555 182.821 308.755 183.571 309.156 184.097C309.557 184.623 310.13 184.886 310.875 184.886ZM318.625 183.792L320.594 177.456H322.141L318.742 187.214C318.216 188.62 317.38 189.323 316.234 189.323L315.961 189.3L315.422 189.198V188.026L315.812 188.058C316.302 188.058 316.682 187.959 316.953 187.761C317.229 187.563 317.456 187.201 317.633 186.675L317.953 185.815L314.938 177.456H316.516L318.625 183.792ZM329.719 178.628H326.883V185.909H325.438V178.628H322.656V177.456H329.719V178.628ZM333.891 184.886C334.406 184.886 334.857 184.729 335.242 184.417C335.628 184.104 335.841 183.714 335.883 183.245H337.25C337.224 183.729 337.057 184.19 336.75 184.628C336.443 185.065 336.031 185.414 335.516 185.675C335.005 185.935 334.464 186.065 333.891 186.065C332.74 186.065 331.823 185.683 331.141 184.917C330.464 184.146 330.125 183.094 330.125 181.761V181.519C330.125 180.696 330.276 179.964 330.578 179.323C330.88 178.683 331.312 178.185 331.875 177.831C332.443 177.477 333.112 177.3 333.883 177.3C334.831 177.3 335.617 177.584 336.242 178.151C336.872 178.719 337.208 179.456 337.25 180.362H335.883C335.841 179.815 335.633 179.368 335.258 179.019C334.888 178.664 334.43 178.487 333.883 178.487C333.148 178.487 332.578 178.753 332.172 179.284C331.771 179.81 331.57 180.573 331.57 181.573V181.847C331.57 182.821 331.771 183.571 332.172 184.097C332.573 184.623 333.146 184.886 333.891 184.886ZM345.156 178.628H342.32V185.909H340.875V178.628H338.094V177.456H345.156V178.628ZM346.695 185.909V177.456H349.992C351.117 177.456 351.979 177.654 352.578 178.05C353.182 178.44 353.484 179.016 353.484 179.776C353.484 180.167 353.367 180.521 353.133 180.839C352.898 181.151 352.552 181.391 352.094 181.558C352.604 181.677 353.013 181.912 353.32 182.261C353.633 182.61 353.789 183.026 353.789 183.511C353.789 184.287 353.503 184.881 352.93 185.292C352.362 185.703 351.557 185.909 350.516 185.909H346.695ZM348.141 182.198V184.745H350.531C351.135 184.745 351.586 184.633 351.883 184.409C352.185 184.185 352.336 183.87 352.336 183.464C352.336 182.62 351.716 182.198 350.477 182.198H348.141ZM348.141 181.042H350.008C351.362 181.042 352.039 180.646 352.039 179.854C352.039 179.063 351.398 178.654 350.117 178.628H348.141V181.042ZM358.375 183.792L360.344 177.456H361.891L358.492 187.214C357.966 188.62 357.13 189.323 355.984 189.323L355.711 189.3L355.172 189.198V188.026L355.562 188.058C356.052 188.058 356.432 187.959 356.703 187.761C356.979 187.563 357.206 187.201 357.383 186.675L357.703 185.815L354.688 177.456H356.266L358.375 183.792ZM366.586 186.065C365.44 186.065 364.508 185.69 363.789 184.94C363.07 184.185 362.711 183.177 362.711 181.917V181.651C362.711 180.813 362.87 180.065 363.188 179.409C363.51 178.748 363.958 178.232 364.531 177.862C365.109 177.487 365.734 177.3 366.406 177.3C367.505 177.3 368.359 177.662 368.969 178.386C369.578 179.11 369.883 180.146 369.883 181.495V182.097H364.156C364.177 182.93 364.419 183.604 364.883 184.12C365.352 184.631 365.945 184.886 366.664 184.886C367.174 184.886 367.607 184.782 367.961 184.573C368.315 184.365 368.625 184.089 368.891 183.745L369.773 184.433C369.065 185.521 368.003 186.065 366.586 186.065ZM366.406 178.487C365.823 178.487 365.333 178.701 364.938 179.128C364.542 179.55 364.297 180.144 364.203 180.909H368.438V180.8C368.396 180.065 368.198 179.498 367.844 179.097C367.49 178.69 367.01 178.487 366.406 178.487ZM377.75 178.628H374.914V185.909H373.469V178.628H370.688V177.456H377.75V178.628Z" fill="#CACACA"/>
<defs>
<clipPath id="clip0">
<rect width="64" height="58.9091" fill="white" transform="translate(251 112)"/>
</clipPath>
</defs>
</svg>
