<svg width="18" height="22" viewBox="0 0 18 22" fill="none" xmlns="http://www.w3.org/2000/svg">
<path d="M14.4941 3.95062C15.9511 5.46166 16.7696 7.511 16.7696 9.64785C16.7696 11.7847 15.9511 13.834 14.4941 15.3451L10.2941 19.7004C9.95069 20.0564 9.48506 20.2563 8.99955 20.2563C8.51405 20.2563 8.04841 20.0564 7.70505 19.7004L3.50505 15.3451C2.04803 13.834 1.22949 11.7847 1.22949 9.64785C1.22949 7.511 2.04803 5.46166 3.50505 3.95062C4.22659 3.20217 5.08325 2.60846 6.02609 2.2034C6.96894 1.79833 7.9795 1.58984 9.00005 1.58984C10.0206 1.58984 11.0312 1.79833 11.974 2.2034C12.9169 2.60846 13.7735 3.20217 14.4951 3.95062H14.4941Z" stroke="#1C2023" stroke-width="1.5" stroke-linecap="round" stroke-linejoin="round"/>
<path d="M14.4941 3.95062C15.9511 5.46166 16.7696 7.511 16.7696 9.64785C16.7696 11.7847 15.9511 13.834 14.4941 15.3451L10.2941 19.7004C9.95069 20.0564 9.48506 20.2563 8.99955 20.2563C8.51405 20.2563 8.04841 20.0564 7.70505 19.7004L3.50505 15.3451C2.04803 13.834 1.22949 11.7847 1.22949 9.64785C1.22949 7.511 2.04803 5.46166 3.50505 3.95062C4.22659 3.20217 5.08325 2.60846 6.02609 2.2034C6.96894 1.79833 7.9795 1.58984 9.00005 1.58984C10.0206 1.58984 11.0312 1.79833 11.974 2.2034C12.9169 2.60846 13.7735 3.20217 14.4951 3.95062H14.4941Z" stroke="#1C2023" stroke-width="1.5" stroke-linecap="round" stroke-linejoin="round"/>
<path d="M8.99998 12.4125C10.4724 12.4125 11.666 11.1748 11.666 9.64792C11.666 8.12106 10.4724 6.8833 8.99998 6.8833C7.52759 6.8833 6.33398 8.12106 6.33398 9.64792C6.33398 11.1748 7.52759 12.4125 8.99998 12.4125Z" stroke="#1C2023" stroke-width="1.5" stroke-linecap="round" stroke-linejoin="round"/>
</svg>
