<svg width="40" height="40" viewBox="0 0 40 40" fill="none" xmlns="http://www.w3.org/2000/svg">
<circle cx="20" cy="20" r="19.5" stroke="white"/>
<path d="M14.2229 27.2569H11.4185C11.1177 27.2569 10.8291 27.1374 10.6164 26.9247C10.4037 26.7119 10.2842 26.4234 10.2842 26.1226V17.2305C10.2842 16.6035 10.7915 16.0962 11.4185 16.0962H14.2229C14.8499 16.0962 15.3572 16.6035 15.3572 17.3158V26.2078C15.3572 26.7496 14.8499 27.2569 14.2229 27.2569V27.2569Z" stroke="white" stroke-linecap="round" stroke-linejoin="round"/>
<path d="M15.3564 18.5012L19.1024 12.3709C20.5452 10.0109 24.1795 11.0316 24.1795 13.7994V17.0361H27.2436C28.1629 17.0361 29.0212 17.4967 29.5326 18.2658C29.9851 18.9456 30.117 19.7917 29.8918 20.577L28.4064 25.7759C28.1547 26.6525 27.3532 27.2572 26.4421 27.2572H19.1714C18.58 27.2572 18.0072 27.0504 17.5521 26.6728L15.3564 24.8526" stroke="white" stroke-linecap="round" stroke-linejoin="round"/>
</svg>
