<svg width="20" height="20" viewBox="0 0 20 20" fill="none" xmlns="http://www.w3.org/2000/svg">
<path d="M10.7999 5.40133L13.1958 8.60722C15.1668 11.2431 13.2878 15 9.99995 15C6.71206 15 4.83313 11.2431 6.80306 8.60722L9.19998 5.40133C9.29287 5.27677 9.41357 5.17563 9.55245 5.10596C9.69134 5.03628 9.84457 5 9.99995 5C10.1553 5 10.3086 5.03628 10.4474 5.10596C10.5863 5.17563 10.707 5.27677 10.7999 5.40133Z" stroke="#2271DB" stroke-width="1.5" stroke-linecap="round" stroke-linejoin="round"/>
<path d="M11.5612 1.145C11.0533 1.056 10.5335 1 9.99981 1C9.46614 1 8.94636 1.056 8.43848 1.145" stroke="#2271DB" stroke-width="1.5" stroke-linecap="round" stroke-linejoin="round"/>
<path d="M18.4492 6.97314C18.7994 7.94215 18.9998 8.98315 18.9998 10.0732" stroke="#2271DB" stroke-width="1.5" stroke-linecap="round" stroke-linejoin="round"/>
<path d="M16.8922 4.24318C16.2161 3.4344 15.4054 2.75051 14.4966 2.22217" stroke="#2271DB" stroke-width="1.5" stroke-linecap="round" stroke-linejoin="round"/>
<path d="M5.50348 2.22217C4.5948 2.75078 3.78421 3.43463 3.10791 4.24318" stroke="#2271DB" stroke-width="1.5" stroke-linecap="round" stroke-linejoin="round"/>
<path d="M1 10.0732C1 8.98215 1.20038 7.94115 1.55054 6.97314" stroke="#2271DB" stroke-width="1.5" stroke-linecap="round" stroke-linejoin="round"/>
<path d="M5.50342 17.9241C6.39618 18.4451 7.38516 18.8141 8.43861 19.0001" stroke="#2271DB" stroke-width="1.5" stroke-linecap="round" stroke-linejoin="round"/>
<path d="M1.55029 13.1731C1.90757 14.1677 2.43463 15.0916 3.10766 15.9031" stroke="#2271DB" stroke-width="1.5" stroke-linecap="round" stroke-linejoin="round"/>
<path d="M11.561 19.0001C12.5945 18.818 13.5881 18.4538 14.4962 17.9241" stroke="#2271DB" stroke-width="1.5" stroke-linecap="round" stroke-linejoin="round"/>
<path d="M16.8921 15.9031C17.5651 15.0916 18.0922 14.1677 18.4495 13.1731" stroke="#2271DB" stroke-width="1.5" stroke-linecap="round" stroke-linejoin="round"/>
</svg>
