<svg width="20" height="20" viewBox="0 0 20 20" fill="none" xmlns="http://www.w3.org/2000/svg">
<path d="M9.27505 5.30095L6.08825 10.7156C6.03227 10.8091 6.00187 10.9156 6.00008 11.0245C5.9983 11.1334 6.0252 11.2409 6.07809 11.3362C6.13098 11.4314 6.20798 11.511 6.30139 11.5671C6.39479 11.6232 6.50129 11.6537 6.61021 11.6556H9.59403V14.3794C9.59118 14.5138 9.63305 14.6454 9.71306 14.7534C9.79306 14.8615 9.90668 14.9399 10.0361 14.9764C10.1655 15.0129 10.3033 15.0054 10.428 14.9551C10.5527 14.9048 10.6571 14.8145 10.725 14.6984L13.9118 9.2857C13.9677 9.19225 13.9981 9.08571 13.9999 8.97679C14.0017 8.86787 13.9748 8.7604 13.9219 8.66516C13.869 8.56993 13.792 8.49028 13.6986 8.43422C13.6052 8.37815 13.4987 8.34765 13.3898 8.34576H10.406V5.62293C10.4095 5.48825 10.3682 5.35621 10.2884 5.24763C10.2086 5.13905 10.095 5.06009 9.96542 5.0232C9.83584 4.98631 9.69767 4.99358 9.57268 5.04386C9.44768 5.09415 9.34297 5.1846 9.27505 5.30095V5.30095Z" stroke="#F0805A" stroke-width="1.5" stroke-linecap="round" stroke-linejoin="round"/>
<path d="M11.5612 1.145C11.0533 1.056 10.5335 1 9.99981 1C9.46614 1 8.94636 1.056 8.43848 1.145" stroke="#F0805A" stroke-width="1.5" stroke-linecap="round" stroke-linejoin="round"/>
<path d="M18.4492 6.97314C18.7994 7.94215 18.9998 8.98315 18.9998 10.0732" stroke="#F0805A" stroke-width="1.5" stroke-linecap="round" stroke-linejoin="round"/>
<path d="M16.8922 4.24318C16.2161 3.4344 15.4054 2.75051 14.4966 2.22217" stroke="#F0805A" stroke-width="1.5" stroke-linecap="round" stroke-linejoin="round"/>
<path d="M5.50348 2.22217C4.5948 2.75078 3.78421 3.43463 3.10791 4.24318" stroke="#F0805A" stroke-width="1.5" stroke-linecap="round" stroke-linejoin="round"/>
<path d="M1 10.0732C1 8.98215 1.20038 7.94115 1.55054 6.97314" stroke="#F0805A" stroke-width="1.5" stroke-linecap="round" stroke-linejoin="round"/>
<path d="M5.50342 17.9241C6.39618 18.4451 7.38516 18.8141 8.43861 19.0001" stroke="#F0805A" stroke-width="1.5" stroke-linecap="round" stroke-linejoin="round"/>
<path d="M1.55029 13.1731C1.90757 14.1677 2.43463 15.0916 3.10766 15.9031" stroke="#F0805A" stroke-width="1.5" stroke-linecap="round" stroke-linejoin="round"/>
<path d="M11.561 19.0001C12.5945 18.818 13.5881 18.4538 14.4962 17.9241" stroke="#F0805A" stroke-width="1.5" stroke-linecap="round" stroke-linejoin="round"/>
<path d="M16.8921 15.9031C17.5651 15.0916 18.0922 14.1677 18.4495 13.1731" stroke="#F0805A" stroke-width="1.5" stroke-linecap="round" stroke-linejoin="round"/>
</svg>
