<svg width="20" height="20" viewBox="0 0 20 20" fill="none" xmlns="http://www.w3.org/2000/svg">
<path d="M5.13631 10.312C5.72788 10.8194 6.39834 11.3945 7.69524 11.3945C8.99217 11.3945 9.66268 10.8194 10.2543 10.312C10.8137 9.83215 11.2969 9.41772 12.3047 9.41772C13.3124 9.41772 13.7956 9.83215 14.355 10.312C14.5188 10.4524 14.7654 10.4336 14.9059 10.2698C15.0463 10.1061 15.0274 9.85946 14.8637 9.71901C14.2721 9.21161 13.6016 8.63647 12.3047 8.63647C11.0077 8.63647 10.3372 9.21159 9.74563 9.71901C9.18618 10.1988 8.70301 10.6133 7.69524 10.6133C6.68748 10.6133 6.20438 10.1989 5.64497 9.71901C5.48122 9.57856 5.23461 9.59741 5.09414 9.76118C4.95368 9.92492 4.97256 10.1715 5.13631 10.312Z" fill="#2D8EFF" stroke="#2D8EFF" stroke-width="0.5"/>
<path d="M5.13631 7.17553C5.72786 7.68295 6.39832 8.25807 7.69524 8.25807C8.99217 8.25807 9.66268 7.68295 10.2543 7.17553C10.8137 6.69568 11.2969 6.28125 12.3047 6.28125C13.3124 6.28125 13.7956 6.69566 14.355 7.17553C14.5188 7.31602 14.7654 7.29709 14.9058 7.13332C15.0463 6.96957 15.0274 6.72293 14.8636 6.5825C14.2721 6.07508 13.6015 5.5 12.3047 5.5C11.0077 5.5 10.3372 6.07512 9.74563 6.58254C9.18618 7.06238 8.70301 7.47682 7.69524 7.47682C6.6875 7.47682 6.20438 7.0624 5.64497 6.58254C5.48122 6.44207 5.23459 6.46094 5.09414 6.62471C4.95368 6.78846 4.97256 7.03508 5.13631 7.17553Z" fill="#2D8EFF" stroke="#2D8EFF" stroke-width="0.5"/>
<path d="M14.8636 12.8555C14.272 12.3481 13.6015 11.7729 12.3046 11.7729C11.0077 11.7729 10.3372 12.3481 9.7456 12.8555C9.18615 13.3353 8.70298 13.7498 7.69521 13.7498C6.68752 13.7498 6.20438 13.3354 5.64497 12.8555L5.64493 12.8555C5.48118 12.7151 5.2346 12.7339 5.09413 12.8977C4.95368 13.0614 4.97257 13.308 5.13632 13.4485C5.72788 13.9559 6.39836 14.531 7.69521 14.531C8.99214 14.531 9.66265 13.9559 10.2542 13.4485C10.8137 12.9686 11.2968 12.5542 12.3046 12.5542C13.3124 12.5542 13.7956 12.9686 14.355 13.4485C14.5188 13.5889 14.7654 13.5701 14.9058 13.4063C15.0463 13.2425 15.0274 12.9959 14.8636 12.8555Z" fill="#2D8EFF" stroke="#2D8EFF" stroke-width="0.5"/>
<path d="M11.5612 1.145C11.0533 1.056 10.5335 1 9.99981 1C9.46614 1 8.94636 1.056 8.43848 1.145" stroke="#2D8EFF" stroke-width="1.5" stroke-linecap="round" stroke-linejoin="round"/>
<path d="M18.4492 6.97314C18.7994 7.94215 18.9998 8.98315 18.9998 10.0732" stroke="#2D8EFF" stroke-width="1.5" stroke-linecap="round" stroke-linejoin="round"/>
<path d="M16.8922 4.24318C16.2161 3.4344 15.4054 2.75051 14.4966 2.22217" stroke="#2D8EFF" stroke-width="1.5" stroke-linecap="round" stroke-linejoin="round"/>
<path d="M5.50348 2.22217C4.5948 2.75078 3.78421 3.43463 3.10791 4.24318" stroke="#2D8EFF" stroke-width="1.5" stroke-linecap="round" stroke-linejoin="round"/>
<path d="M1 10.0732C1 8.98215 1.20038 7.94115 1.55054 6.97314" stroke="#2D8EFF" stroke-width="1.5" stroke-linecap="round" stroke-linejoin="round"/>
<path d="M5.50342 17.9241C6.39618 18.4451 7.38516 18.8141 8.43861 19.0001" stroke="#2D8EFF" stroke-width="1.5" stroke-linecap="round" stroke-linejoin="round"/>
<path d="M1.55029 13.1731C1.90757 14.1677 2.43463 15.0916 3.10766 15.9031" stroke="#2D8EFF" stroke-width="1.5" stroke-linecap="round" stroke-linejoin="round"/>
<path d="M11.561 19.0001C12.5945 18.818 13.5881 18.4538 14.4962 17.9241" stroke="#2D8EFF" stroke-width="1.5" stroke-linecap="round" stroke-linejoin="round"/>
<path d="M16.8921 15.9031C17.5651 15.0916 18.0922 14.1677 18.4495 13.1731" stroke="#2D8EFF" stroke-width="1.5" stroke-linecap="round" stroke-linejoin="round"/>
</svg>
