<svg width="20" height="20" viewBox="0 0 20 20" fill="none" xmlns="http://www.w3.org/2000/svg">
<path d="M11.5612 1.145C11.0533 1.056 10.5335 1 9.99981 1C9.46614 1 8.94636 1.056 8.43848 1.145" stroke="#A3C666" stroke-width="1.5" stroke-linecap="round" stroke-linejoin="round"/>
<path d="M18.4492 6.97314C18.7994 7.94215 18.9998 8.98315 18.9998 10.0732" stroke="#A3C666" stroke-width="1.5" stroke-linecap="round" stroke-linejoin="round"/>
<path d="M16.8922 4.24318C16.2161 3.4344 15.4054 2.75051 14.4966 2.22217" stroke="#A3C666" stroke-width="1.5" stroke-linecap="round" stroke-linejoin="round"/>
<path d="M5.50348 2.22217C4.5948 2.75078 3.78421 3.43463 3.10791 4.24318" stroke="#A3C666" stroke-width="1.5" stroke-linecap="round" stroke-linejoin="round"/>
<path d="M1 10.0732C1 8.98215 1.20038 7.94115 1.55054 6.97314" stroke="#A3C666" stroke-width="1.5" stroke-linecap="round" stroke-linejoin="round"/>
<path d="M5.50342 17.9241C6.39618 18.4451 7.38516 18.8141 8.43861 19.0001" stroke="#A3C666" stroke-width="1.5" stroke-linecap="round" stroke-linejoin="round"/>
<path d="M1.55029 13.1731C1.90757 14.1677 2.43463 15.0916 3.10766 15.9031" stroke="#A3C666" stroke-width="1.5" stroke-linecap="round" stroke-linejoin="round"/>
<path d="M11.561 19.0001C12.5945 18.818 13.5881 18.4538 14.4962 17.9241" stroke="#A3C666" stroke-width="1.5" stroke-linecap="round" stroke-linejoin="round"/>
<path d="M16.8921 15.9031C17.5651 15.0916 18.0922 14.1677 18.4495 13.1731" stroke="#A3C666" stroke-width="1.5" stroke-linecap="round" stroke-linejoin="round"/>
<path d="M9.54544 6.50045C8.56887 6.50045 7.6323 6.88839 6.94176 7.57893C6.25122 8.26947 5.86328 9.20604 5.86328 10.1826C5.86328 11.1592 6.25122 12.0957 6.94176 12.7863C7.6323 13.4768 8.56887 13.8648 9.54544 13.8648C12.5451 13.8648 13.2813 10.1816 15.0002 9.19995C14.3684 8.35156 13.5449 7.66471 12.5968 7.19554C11.6488 6.72636 10.6032 6.48818 9.54544 6.50045Z" stroke="#A3C666" stroke-width="1.5" stroke-linecap="round" stroke-linejoin="round"/>
<path d="M9.98931 9.78198C8.97121 9.9523 8.00054 10.3356 7.14077 10.9069C6.281 11.4781 5.5515 12.2245 5 13.097" stroke="#A3C666" stroke-width="1.5" stroke-linecap="round" stroke-linejoin="round"/>
</svg>
