<svg width="20" height="20" viewBox="0 0 20 20" fill="none" xmlns="http://www.w3.org/2000/svg">
<path d="M9.333 9.445C9.20609 9.57185 9.05086 9.66674 8.88009 9.72186C8.70933 9.77698 8.52792 9.79076 8.35079 9.76205C8.17366 9.73334 8.00589 9.66297 7.86128 9.55674C7.71666 9.4505 7.59935 9.31144 7.519 9.151L7.111 8.333C6.75871 8.68535 6.47927 9.10365 6.28865 9.564C6.09802 10.0243 5.99994 10.5177 6 11.016V11.111C6 11.6217 6.10059 12.1274 6.29603 12.5993C6.49147 13.0711 6.77793 13.4998 7.13906 13.8609C7.50019 14.2221 7.92891 14.5085 8.40074 14.704C8.87258 14.8994 9.37829 15 9.889 15C10.3997 15 10.9054 14.8994 11.3773 14.704C11.8491 14.5085 12.2778 14.2221 12.6389 13.8609C13.0001 13.4998 13.2865 13.0711 13.482 12.5993C13.6774 12.1274 13.778 11.6217 13.778 11.111C13.7781 10.5907 13.6615 10.077 13.4369 9.60764C13.2123 9.1383 12.8853 8.7253 12.48 8.399L11.877 7.913C11.2669 7.42117 10.8402 6.73808 10.666 5.974L10.444 5C9.93137 5.51273 9.55325 6.14409 9.34322 6.83804C9.13318 7.53199 9.09773 8.26706 9.24 8.978L9.333 9.445V9.445Z" stroke="#706F6F" stroke-width="1.5" stroke-linecap="round" stroke-linejoin="round"/>
<path d="M11.5612 1.145C11.0533 1.056 10.5335 1 9.99981 1C9.46614 1 8.94636 1.056 8.43848 1.145" stroke="#706F6F" stroke-width="1.5" stroke-linecap="round" stroke-linejoin="round"/>
<path d="M18.4492 6.97314C18.7994 7.94215 18.9998 8.98315 18.9998 10.0732" stroke="#706F6F" stroke-width="1.5" stroke-linecap="round" stroke-linejoin="round"/>
<path d="M16.8922 4.24318C16.2161 3.4344 15.4054 2.75051 14.4966 2.22217" stroke="#706F6F" stroke-width="1.5" stroke-linecap="round" stroke-linejoin="round"/>
<path d="M5.50348 2.22217C4.5948 2.75078 3.78421 3.43463 3.10791 4.24318" stroke="#706F6F" stroke-width="1.5" stroke-linecap="round" stroke-linejoin="round"/>
<path d="M1 10.0732C1 8.98215 1.20038 7.94115 1.55054 6.97314" stroke="#706F6F" stroke-width="1.5" stroke-linecap="round" stroke-linejoin="round"/>
<path d="M5.50342 17.9241C6.39618 18.4451 7.38516 18.8141 8.43861 19.0001" stroke="#706F6F" stroke-width="1.5" stroke-linecap="round" stroke-linejoin="round"/>
<path d="M1.55029 13.1731C1.90757 14.1677 2.43463 15.0916 3.10766 15.9031" stroke="#706F6F" stroke-width="1.5" stroke-linecap="round" stroke-linejoin="round"/>
<path d="M11.561 19.0001C12.5945 18.818 13.5881 18.4538 14.4962 17.9241" stroke="#706F6F" stroke-width="1.5" stroke-linecap="round" stroke-linejoin="round"/>
<path d="M16.8921 15.9031C17.5651 15.0916 18.0922 14.1677 18.4495 13.1731" stroke="#706F6F" stroke-width="1.5" stroke-linecap="round" stroke-linejoin="round"/>
</svg>
